<?xml version="1.0" encoding="UTF-8"?>
<svg xmlns="http://www.w3.org/2000/svg" xmlns:xlink="http://www.w3.org/1999/xlink" version="1.1" id="Ebene_1" x="0px" y="0px" viewBox="0 0 291.97 87.87" style="enable-background:new 0 0 291.97 87.87;" xml:space="preserve">
<style type="text/css">
	.st0{fill:#008BD2;}
	.st1{fill:#202A60;}
	.st2{clip-path:url(#SVGID_00000114040124511669550420000018291624227100824209_);}
	
		.st3{clip-path:url(#SVGID_00000136408653207683574000000015370700149488703141_);fill:url(#SVGID_00000106118526775657548810000002638358228371572108_);}
</style>
<polygon class="st0" points="70.5,50.85 70.5,8.32 78.03,8.32 78.03,44.41 95.89,44.41 95.89,50.85 "></polygon>
<g>
	<path class="st0" d="M120.62,50.85l-0.37-4.62c-2.49,3.59-6.2,5.35-9.96,5.35c-3.77,0-6.68-1.52-8.63-4.01   c-2.31-3.04-2.79-7.17-2.79-11.73V19.56h7.35V35.3c0,2.61,0.06,5.53,1.21,7.47c0.91,1.58,2.49,2.37,4.74,2.37   c2.92,0,5.95-1.89,7.78-4.8V19.56h7.35v31.29H120.62z"></path>
	<path class="st0" d="M159.09,48.05c-2.73,2.37-6.38,3.53-10.57,3.53c-9.11,0-15.92-6.62-15.92-16.41c0-9.11,6.8-16.35,16.22-16.35   c3.83,0,7.29,1.22,10.09,3.34l-3.65,5.47c-1.76-1.52-3.89-2.37-6.2-2.37c-5.1,0-8.99,4.44-8.99,9.9c0,5.83,4.07,9.96,8.93,9.96   c2.25,0,4.5-0.79,6.26-2.31L159.09,48.05z"></path>
	<path class="st0" d="M183.13,50.85l-0.37-2.92c-2.25,2.67-5.28,3.64-8.87,3.64c-5.83,0-11.24-3.22-11.24-9.78   c0-7.78,7.17-10.21,13.79-10.21c1.64,0,3.59,0.18,5.89,0.67v-0.73c0-4.25-1.88-6.8-6.68-6.8c-3.52,0-6.99,1.34-9.66,2.73l-2-5.53   c3.71-1.82,8.5-3.1,13-3.1c8.87,0,12.7,4.98,12.7,13.12v18.9H183.13z M182.34,37c-1.88-0.43-3.4-0.61-4.8-0.61   c-3.46,0-7.66,1.09-7.66,5.16c0,3.16,2.49,4.56,5.35,4.56c2.73,0,4.98-1.27,7.11-3.1V37z"></path>
</g>
<polygon class="st1" points="225.38,50.85 204.35,22.11 204.35,50.85 196.82,50.85 196.82,8.32 203.44,8.32 224.59,37.12   224.59,8.32 232.12,8.32 232.12,50.85 "></polygon>
<path class="st1" d="M244.66,37.06c0.49,4.68,3.65,8.51,8.75,8.51c4.07,0,6.68-1.58,8.63-4.86l4.98,3.34  c-3.46,5.1-7.54,7.53-14.04,7.53c-9.66,0-15.74-6.86-15.74-16.16c0-9.42,6.87-16.59,15.74-16.59c8.51,0,14.76,6.14,14.76,14.52  c0,1.15-0.12,2.55-0.3,3.71H244.66z M253.16,24.73c-4.5,0-7.11,3.04-8.08,7.05h15.13C260.03,27.7,257.05,24.73,253.16,24.73"></path>
<path class="st1" d="M281.4,25.76V38.7c0,0.91,0,1.64,0.06,2.61c0.24,2.43,1.09,3.83,3.4,3.83c1.34,0,2.43-0.31,3.46-0.85l2.19,5.59  c-1.82,1.03-4.5,1.64-6.8,1.64c-4.68,0-7.72-2.37-8.93-5.95c-0.61-1.64-0.79-3.71-0.79-5.77V25.76h-3.89v-6.2h3.89l0.79-7.17h6.62  v7.17h8.26v6.2H281.4z"></path>
<g>
	<path class="st1" d="M76.25,66.68c-1.92,0-3.15,0.92-3.15,2.43c0,1.74,2.08,2.28,4.13,3.04c2.03,0.76,4.06,1.74,4.06,4.35   c0,3.5-3.06,4.82-5.29,4.82c-2.21,0-3.89-0.62-5.49-2.21l1.25-1.12c1.54,1.56,2.72,1.81,4.27,1.81c1.79,0,3.5-0.94,3.5-3.04   c0-1.88-1.78-2.57-3.68-3.28c-2.14-0.8-4.44-1.61-4.44-4.15c0-2.86,2.12-4.18,4.58-4.18c1.79,0,3.33,0.49,4.64,1.5l-1.09,1.21   C78.87,67.2,77.48,66.68,76.25,66.68z"></path>
	<path class="st1" d="M84.15,67.73v-2.1h1.52v2.1H84.15z M84.15,81.07v-10.9h1.52v10.9H84.15z"></path>
	<path class="st1" d="M90.36,70.17v1.92c0.87-1.45,2.21-2.19,3.64-2.19c1.83,0,2.9,0.83,3.44,2.26c1.39-1.76,2.48-2.26,3.84-2.26   c2.9,0,4.09,1.85,4.09,5.27v5.9h-1.52v-5.65c0-2.08-0.47-4.13-2.63-4.13c-1.29,0-2.61,0.87-3.44,2.28c0.07,0.49,0.09,1,0.09,1.56   v5.94h-1.52v-5.65c0-2.05-0.38-4.13-2.57-4.13c-1.38,0-2.7,1.16-3.42,2.54v7.24h-1.52v-10.9H90.36z"></path>
	<path class="st1" d="M109.89,70.17v1.41c0.83-1.09,2.17-1.68,3.51-1.68c3.19,0,5.58,2.57,5.58,5.67c0,3.1-2.41,5.76-5.6,5.76   c-1.23,0-2.55-0.47-3.48-1.34v6.66h-1.52V70.17H109.89z M109.89,78.23c0.8,1.05,2.21,1.72,3.46,1.72c2.37,0,4.06-1.96,4.06-4.29   c0-2.34-1.67-4.38-4.06-4.38c-1.34,0-2.84,0.78-3.46,2.05V78.23z"></path>
	<path class="st1" d="M122.89,81.07h-1.52V64.32h1.52V81.07z"></path>
	<path class="st1" d="M126.17,70.17l3.08,9.22l3.28-9.22h1.63l-5.92,15.88l-1.3-0.51l1.45-3.93l-3.89-11.43H126.17z"></path>
	<path class="st1" d="M140.7,67.73v-2.1h1.52v2.1H140.7z M140.7,81.07v-10.9h1.52v10.9H140.7z"></path>
	<path class="st1" d="M147.13,70.17v1.92c0.87-1.45,2.21-2.19,3.88-2.19c3.1,0,4.11,1.99,4.11,5.27v5.9h-1.52v-5.65   c0-2.05-0.38-4.13-2.81-4.13c-1.63,0-2.95,1.16-3.66,2.54v7.24h-1.52v-10.9H147.13z"></path>
	<path class="st1" d="M160.1,71.55v6.01c0,1.96,0.67,2.32,1.67,2.32c0.4,0,0.85-0.11,1.34-0.29l0.38,1.21   c-0.49,0.27-1.09,0.47-1.74,0.47c-2.12,0-3.17-1.27-3.17-3.53v-6.19h-1.54v-1.38h1.54v-2.73h1.52v2.73h3.17v1.38H160.1z"></path>
	<path class="st1" d="M165.72,76c0.13,2.1,1.52,4.04,3.88,4.04c1.45,0,2.68-0.4,3.46-1.88l1.07,0.69c-0.87,1.63-2.77,2.48-4.42,2.48   c-3.57,0-5.52-2.59-5.52-5.78c0-3.21,2.37-5.65,5.34-5.65c2.81,0,4.85,2.39,4.85,5.09c0,0.36-0.05,0.8-0.07,1H165.72z M169.54,71.2   c-2.1,0-3.46,1.47-3.77,3.51h7.12C172.8,72.87,171.39,71.2,169.54,71.2z"></path>
	<path class="st1" d="M178.29,81.07h-1.52V64.32h1.52V81.07z"></path>
	<path class="st1" d="M183.2,81.07h-1.52V64.32h1.52V81.07z"></path>
	<path class="st1" d="M186.6,67.73v-2.1h1.52v2.1H186.6z M186.6,81.07v-10.9h1.52v10.9H186.6z"></path>
	<path class="st1" d="M201.11,80.44c0,3.84-2.59,5.54-5.49,5.54c-1.67,0-3.42-0.62-4.78-1.54l0.62-1.27   c0.96,0.76,2.57,1.43,4.13,1.43c2.06,0,4-1,4-3.68v-1.52c-0.83,1.09-2.17,1.68-3.5,1.68c-3.19,0-5.58-2.57-5.58-5.54   c0-2.97,2.41-5.63,5.61-5.63c1.23,0,2.54,0.47,3.48,1.34v-1.07h1.52V80.44z M199.59,73c-0.8-1.05-2.21-1.72-3.46-1.72   c-2.37,0-4.06,1.96-4.06,4.15c0,2.21,1.67,4.24,4.06,4.24c1.34,0,2.84-0.78,3.46-2.05V73z"></path>
	<path class="st1" d="M204.86,76c0.13,2.1,1.52,4.04,3.88,4.04c1.45,0,2.68-0.4,3.46-1.88l1.07,0.69c-0.87,1.63-2.77,2.48-4.42,2.48   c-3.57,0-5.51-2.59-5.51-5.78c0-3.21,2.37-5.65,5.34-5.65c2.81,0,4.85,2.39,4.85,5.09c0,0.36-0.04,0.8-0.07,1H204.86z M208.67,71.2   c-2.1,0-3.46,1.47-3.77,3.51h7.12C211.93,72.87,210.53,71.2,208.67,71.2z"></path>
	<path class="st1" d="M217.42,70.17v1.92c0.87-1.45,2.21-2.19,3.89-2.19c3.1,0,4.11,1.99,4.11,5.27v5.9h-1.52v-5.65   c0-2.05-0.38-4.13-2.81-4.13c-1.63,0-2.95,1.16-3.66,2.54v7.24h-1.52v-10.9H217.42z"></path>
	<path class="st1" d="M230.39,71.55v6.01c0,1.96,0.67,2.32,1.68,2.32c0.4,0,0.85-0.11,1.34-0.29l0.38,1.21   c-0.49,0.27-1.09,0.47-1.74,0.47c-2.12,0-3.17-1.27-3.17-3.53v-6.19h-1.54v-1.38h1.54v-2.73h1.52v2.73h3.17v1.38H230.39z"></path>
	<path class="st1" d="M235.77,81.07v-2.25h1.85v2.25H235.77z"></path>
</g>
<g>
	<defs>
		<path id="SVGID_1_" d="M57.31,34.3c1.35-7.94-0.71-16.41-6.38-22.99C45.21,4.68,37.06,1.38,28.94,1.6    c-0.34,12.53-4.07,26.32-6.63,34.43C30.64,34.52,44.69,32.66,57.31,34.3"></path>
	</defs>
	<defs>
		<path id="SVGID_00000121977142552303962830000014054244604749003919_" d="M37.26,42.41c-11.07,0.96-20.16,3.2-20.25,3.23    c-1.5,0.37-3.09-0.12-4.12-1.28c-1.03-1.16-1.33-2.79-0.78-4.24c0.03-0.09,3.37-8.94,5.86-19.83c1.46-6.41,2.32-12.16,2.6-17.17    c-3.25,1.12-6.36,2.86-9.13,5.25C-0.28,18.46-1.59,36.14,8.5,47.85c10.09,11.72,27.77,13.04,39.49,2.94    c2.83-2.44,5.04-5.31,6.64-8.44C49.59,41.84,43.77,41.85,37.26,42.41"></path>
	</defs>
	
		<linearGradient id="SVGID_00000018954409518993710400000010725039714331339651_" gradientUnits="userSpaceOnUse" x1="21.7703" y1="8.7693" x2="52.3059" y2="39.3049">
		<stop offset="0" style="stop-color:#FFFFFF"></stop>
		<stop offset="0.0963" style="stop-color:#7CC0EA"></stop>
		<stop offset="0.1917" style="stop-color:#603917"></stop>
		<stop offset="0.2727" style="stop-color:#000000"></stop>
		<stop offset="0.3983" style="stop-color:#EE3124"></stop>
		<stop offset="0.4527" style="stop-color:#F25A27"></stop>
		<stop offset="0.4974" style="stop-color:#F47528"></stop>
		<stop offset="0.5236" style="stop-color:#F57F29"></stop>
		<stop offset="0.6335" style="stop-color:#FFF000"></stop>
		<stop offset="0.7483" style="stop-color:#58B947"></stop>
		<stop offset="0.8444" style="stop-color:#0054A6"></stop>
		<stop offset="0.9986" style="stop-color:#9F248F"></stop>
	</linearGradient>
	<use xlink:href="#SVGID_1_" style="overflow:visible;fill:url(#SVGID_00000018954409518993710400000010725039714331339651_);"></use>
	
		<linearGradient id="SVGID_00000000217994174785873280000010354665786156154003_" gradientUnits="userSpaceOnUse" x1="4.344" y1="15.3558" x2="43.9396" y2="54.9514">
		<stop offset="0" style="stop-color:#F498C0"></stop>
		<stop offset="0.1074" style="stop-color:#FFFFFF"></stop>
		<stop offset="0.1935" style="stop-color:#7CC0EA"></stop>
		<stop offset="0.268" style="stop-color:#603917"></stop>
		<stop offset="0.3391" style="stop-color:#000000"></stop>
		<stop offset="0.4165" style="stop-color:#EE3124"></stop>
		<stop offset="0.4635" style="stop-color:#F25A27"></stop>
		<stop offset="0.502" style="stop-color:#F47528"></stop>
		<stop offset="0.5246" style="stop-color:#F57F29"></stop>
		<stop offset="0.6348" style="stop-color:#FFF000"></stop>
		<stop offset="0.735" style="stop-color:#58B947"></stop>
		<stop offset="0.8169" style="stop-color:#0054A6"></stop>
		<stop offset="0.9122" style="stop-color:#9F248F"></stop>
	</linearGradient>
	
		<use xlink:href="#SVGID_00000121977142552303962830000014054244604749003919_" style="overflow:visible;fill:url(#SVGID_00000000217994174785873280000010354665786156154003_);"></use>
	<clipPath id="SVGID_00000133518350115296349560000010707018099859458741_">
		<use xlink:href="#SVGID_1_" style="overflow:visible;"></use>
	</clipPath>
	
		<clipPath id="SVGID_00000105395101097677459770000000711716744564639882_" style="clip-path:url(#SVGID_00000133518350115296349560000010707018099859458741_);">
		<use xlink:href="#SVGID_00000121977142552303962830000014054244604749003919_" style="overflow:visible;"></use>
	</clipPath>
	
		<linearGradient id="SVGID_00000089534749300522016300000002538187334415240843_" gradientUnits="userSpaceOnUse" x1="18.7755" y1="79.1221" x2="87.9678" y2="111.5237" gradientTransform="matrix(0.942 0.3357 -0.3402 0.9544 11.4103 -79.3134)">
		<stop offset="0" style="stop-color:#F498C0"></stop>
		<stop offset="0.0937" style="stop-color:#FFFFFF"></stop>
		<stop offset="0.1569" style="stop-color:#7CC0EA"></stop>
		<stop offset="0.2392" style="stop-color:#603917"></stop>
		<stop offset="0.3072" style="stop-color:#000000"></stop>
		<stop offset="0.449" style="stop-color:#EE3124"></stop>
		<stop offset="0.4784" style="stop-color:#F25A27"></stop>
		<stop offset="0.5026" style="stop-color:#F47528"></stop>
		<stop offset="0.5168" style="stop-color:#F57F29"></stop>
		<stop offset="0.6007" style="stop-color:#FFF000"></stop>
		<stop offset="0.6951" style="stop-color:#58B947"></stop>
		<stop offset="0.8317" style="stop-color:#0054A6"></stop>
		<stop offset="0.9504" style="stop-color:#9F248F"></stop>
	</linearGradient>
	
		<polygon style="clip-path:url(#SVGID_00000105395101097677459770000000711716744564639882_);fill:url(#SVGID_00000089534749300522016300000002538187334415240843_);" points="   47.3,65.88 -7.67,46.29 11.22,-6.71 66.19,12.88  "></polygon>
</g>
</svg>
